<svg xmlns="http://www.w3.org/2000/svg" width="13.128" height="18.168" viewBox="0 0 13.128 18.168">
    <defs>
        <style>
            .cls-1{fill:#fff}
        </style>
    </defs>
    <g id="bitcoin-logo">
        <path id="Path_69" d="M78.5 9.531a3.279 3.279 0 0 0-1.911-1.124 2.589 2.589 0 0 0 1.43-2.817 2.784 2.784 0 0 0-.4-1.25 2.5 2.5 0 0 0-.9-.852A4.959 4.959 0 0 0 75.49 3a9.734 9.734 0 0 0-1.529-.246V0H72.28v2.675q-.437 0-1.332.022V0h-1.681v2.751q-.36.011-1.059.011l-2.315-.011v1.791H67.1a.867.867 0 0 1 .972.742v3.134a1.11 1.11 0 0 1 .175.011h-.175v4.389a.583.583 0 0 1-.633.557h-1.207l-.339 2h2.184q.207 0 .6.005t.59.006v2.784h1.682v-2.753q.458.011 1.332.011v2.74h1.681v-2.784a13.072 13.072 0 0 0 1.589-.164 6.465 6.465 0 0 0 1.327-.377 3.58 3.58 0 0 0 1.059-.639 3.014 3.014 0 0 0 .7-.972 4.131 4.131 0 0 0 .355-1.365 3.234 3.234 0 0 0-.492-2.336zm-7.523-4.87l.431-.006.592-.01q.235-.005.633.027a6.024 6.024 0 0 1 .671.087 3.74 3.74 0 0 1 .6.18 1.627 1.627 0 0 1 .524.306 1.516 1.516 0 0 1 .333.459 1.431 1.431 0 0 1 .137.639 1.519 1.519 0 0 1-.1.557 1.049 1.049 0 0 1-.295.42 2.987 2.987 0 0 1-.4.295 1.85 1.85 0 0 1-.529.2q-.322.076-.562.12a4.6 4.6 0 0 1-.6.06q-.36.016-.546.022t-.508 0l-.377-.006V4.662zm4.595 7.439a1.552 1.552 0 0 1-.267.437 1.517 1.517 0 0 1-.431.327 3.7 3.7 0 0 1-.519.229 4.174 4.174 0 0 1-.606.153q-.355.066-.623.093t-.639.044q-.371.016-.579.016t-.524-.006l-.4-.005V9.7q.087 0 .519-.011t.7-.011q.273 0 .754.033a6.438 6.438 0 0 1 .808.1 5.312 5.312 0 0 1 .715.2 2.074 2.074 0 0 1 .628.333 1.639 1.639 0 0 1 .4.5 1.56 1.56 0 0 1 .06 1.256z" class="cls-1" data-name="Path 69" transform="translate(-65.893)"/>
    </g>
</svg>
