<svg xmlns="http://www.w3.org/2000/svg" width="17.611" height="17.611" viewBox="0 0 17.611 17.611">
    <defs>
        <style>
            .cls-1{fill:#fff}
        </style>
    </defs>
    <g id="bitcoin-logo">
        <g id="bitcoin-logo-2" data-name="bitcoin-logo">
            <path id="ripple" d="M8.805 17.611A8.805 8.805 0 0 1 2.579 2.579a8.805 8.805 0 0 1 12.453 12.453 8.748 8.748 0 0 1-6.227 2.579zm0-16.235a7.43 7.43 0 1 0 7.43 7.43 7.438 7.438 0 0 0-7.43-7.43zm2.026 7.946a2.578 2.578 0 0 0-.291.014h-.01l-.112.014h-.027l-.06.01a.317.317 0 0 1-.087-.033.634.634 0 0 1-.114-1.038.934.934 0 0 1 .111-.085 2.571 2.571 0 0 0 .368.044h.27l.111-.009h.02l.091-.012.041-.006.087-.016.053-.011.065-.015.049-.012h.011a2.582 2.582 0 1 0-2.967-1.31 2.6 2.6 0 0 0 .218.349.7.7 0 0 1-.018.288.635.635 0 0 1-.8.476 1.154 1.154 0 0 1-.182-.066 2.582 2.582 0 1 0-.463 2.53l.006.006a2.572 2.572 0 0 0 .405-.666.674.674 0 0 1 1.048.263 1.5 1.5 0 0 1 .083.311 2.638 2.638 0 0 0-.257.42l-.021.046a2.579 2.579 0 1 0 2.371-1.495zm-5.6.653a1.2 1.2 0 1 1 .566-2.266l-.007.008a1.2 1.2 0 0 1 .473.447 1.293 1.293 0 0 1 .12.27.705.705 0 0 0 .017.049 1.2 1.2 0 0 1-1.172 1.492zm5.5-5.5A1.2 1.2 0 0 1 11.15 6.8l-.032.011-.021.007-.03.009-.024.007-.029.007-.027.006-.028.006-.029.005h-.269a1.348 1.348 0 0 1-.2-.029A1.208 1.208 0 0 1 9.7 6.3l-.027-.047v-.006a1.2 1.2 0 0 1 1.061-1.773zM10.8 13.1a1.2 1.2 0 0 1-.191-2.392h.014A1.2 1.2 0 1 1 10.8 13.1zm0 0" class="cls-1"/>
        </g>
    </g>
</svg>
