<svg xmlns="http://www.w3.org/2000/svg" xmlns:xlink="http://www.w3.org/1999/xlink" width="33.854" height="27.118" viewBox="0 0 33.854 27.118">
  <defs>
    <linearGradient id="linear-gradient" x1="0.5" x2="0.5" y2="1" gradientUnits="objectBoundingBox">
      <stop offset="0" stop-color="#e8a690"/>
      <stop offset="0.02" stop-color="#e8a690"/>
      <stop offset="0.171" stop-color="#d6948d"/>
      <stop offset="0.475" stop-color="#a66684"/>
      <stop offset="0.9" stop-color="#591c76"/>
      <stop offset="1" stop-color="#460a72"/>
    </linearGradient>
  </defs>
  <g id="arrow-shuffle" transform="translate(0 -49.019)">
    <path id="Path_681" data-name="Path 681" d="M10.835,64.035a34.846,34.846,0,0,0,2.893,3.658C11.146,70.665,7.384,73.368,0,73.368V67.961c5.854,0,8.226-1.941,10.323-4.637Q10.576,63.673,10.835,64.035Zm5.779-4.145c.529.737,1.026,1.429,1.54,2.064,1.784-1.968,4.023-3.372,8.307-3.646l-1.316,3.332a.328.328,0,0,0,.108.384.334.334,0,0,0,.2.067.328.328,0,0,0,.2-.068l8.073-6.207a.329.329,0,0,0,0-.522l-8.073-6.207a.329.329,0,0,0-.507.383L26.5,52.894c-5.8.3-9.215,2.3-11.624,4.678C15.519,58.366,16.086,59.155,16.614,59.89Zm9.038,3.243a.329.329,0,0,0-.507.383l1.315,3.332c-6.13-.39-8.077-3.1-10.487-6.46-2.748-3.831-6.167-8.6-15.974-8.6v5.406c7.031,0,9.039,2.8,11.58,6.344,2.653,3.7,5.924,8.252,14.918,8.724l-1.352,3.424a.329.329,0,0,0,.507.383l8.073-6.207a.328.328,0,0,0,0-.522Z" fill="url(#linear-gradient)"/>
  </g>
</svg>
