<svg xmlns="http://www.w3.org/2000/svg" xmlns:xlink="http://www.w3.org/1999/xlink" width="30.137" height="29.176" viewBox="0 0 30.137 29.176">
  <defs>
    <linearGradient id="linear-gradient" x1="0.5" x2="0.5" y2="1" gradientUnits="objectBoundingBox">
      <stop offset="0" stop-color="#e8a690"/>
      <stop offset="0.02" stop-color="#e8a690"/>
      <stop offset="0.171" stop-color="#d6948d"/>
      <stop offset="0.475" stop-color="#a66684"/>
      <stop offset="0.9" stop-color="#591c76"/>
      <stop offset="1" stop-color="#460a72"/>
    </linearGradient>
  </defs>
  <g id="house-black-silhouette-without-door" transform="translate(0 -4.89)">
    <path id="Path_684" data-name="Path 684" d="M29.759,19.125a1.437,1.437,0,0,0-.118-2.056L16.173,5.284a1.679,1.679,0,0,0-2.19.025L.469,17.7A1.429,1.429,0,0,0,.4,19.751l.339.353a1.478,1.478,0,0,0,2.028.155l1.01-.9V32.6a1.47,1.47,0,0,0,1.47,1.47h5.268a1.47,1.47,0,0,0,1.47-1.47V23.332h6.719V32.6a1.389,1.389,0,0,0,1.381,1.47h5.583a1.47,1.47,0,0,0,1.47-1.47V19.541l.623.547c.344.3,1.065.06,1.611-.542Z" transform="translate(0)" fill="url(#linear-gradient)"/>
  </g>
</svg>
