<svg xmlns="http://www.w3.org/2000/svg" width="28.071" height="23.906" viewBox="0 0 28.071 23.906">
    <defs>
        <style>
            .cls-1{fill:url(#linear-gradient)}.cls-2{opacity:.99}.cls-3{clip-path:url(#clip-path)}.cls-4{clip-path:url(#clip-path-2)}
        </style>
        <linearGradient id="linear-gradient" x1=".5" x2=".5" y2="1" gradientUnits="objectBoundingBox">
            <stop offset="0" stop-color="#bebfc0"/>
            <stop offset="1" stop-color="#615f60"/>
        </linearGradient>
        <clipPath id="clip-path">
            <path id="Rectangle_5" d="M0 0h28.071v23.906H0z" class="cls-1" data-name="Rectangle 5"/>
        </clipPath>
        <clipPath id="clip-path-2">
            <path id="Path_305" d="M487.125 142.772v-5.39h-14.393a7.092 7.092 0 0 0-6.963 7.2v9.509a7.093 7.093 0 0 0 6.963 7.2h21.108v-18.5zm-14.393-2.445h11.547v2.44l-15.255-.032a4.112 4.112 0 0 1 3.708-2.408m0 18.018a4.191 4.191 0 0 1-4.115-4.253v-8.413l22.378.045v4.581h-2.567a1.472 1.472 0 0 0 0 2.943h2.567v5.1z" class="cls-1" data-name="Path 305" transform="translate(-465.769 -137.382)"/>
        </clipPath>
    </defs>
    <g id="Group_25" class="cls-2" data-name="Group 25">
        <g id="Group_24" data-name="Group 24">
            <g id="Group_23" class="cls-3" data-name="Group 23">
                <g id="Group_22" data-name="Group 22" transform="translate(0 -.001)">
                    <g id="Group_21" class="cls-4" data-name="Group 21">
                        <path id="Rectangle_4" d="M0 0h24.238v28.334H0z" class="cls-1" data-name="Rectangle 4" transform="rotate(-89.321 11.958 12.091)"/>
                    </g>
                </g>
            </g>
        </g>
    </g>
</svg>
