<svg xmlns="http://www.w3.org/2000/svg" xmlns:xlink="http://www.w3.org/1999/xlink" width="36.08" height="23.906" viewBox="0 0 36.08 23.906">
  <defs>
    <linearGradient id="linear-gradient" x1="0.5" x2="0.5" y2="1" gradientUnits="objectBoundingBox">
      <stop offset="0" stop-color="#bebfc0"/>
      <stop offset="1" stop-color="#615f60"/>
    </linearGradient>
    <clipPath id="clip-path">
      <path id="Path_313" data-name="Path 313" d="M585.733,149.625a11.772,11.772,0,0,0,11.559,11.953,11.183,11.183,0,0,0,6.479-2.064,11.749,11.749,0,0,1-2.336-2.18,8.255,8.255,0,0,1-4.142,1.122,8.836,8.836,0,0,1,0-17.662,8.318,8.318,0,0,1,4.146,1.118,11.866,11.866,0,0,1,2.333-2.177,11.3,11.3,0,0,0-6.479-2.064,11.774,11.774,0,0,0-11.559,11.953" transform="translate(-585.733 -137.672)" fill="url(#linear-gradient)"/>
    </clipPath>
    <clipPath id="clip-path-2">
      <path id="Path_314" data-name="Path 314" d="M598.8,149.625a8.544,8.544,0,1,1,8.539,8.831,8.7,8.7,0,0,1-8.539-8.831m-3.02,0a11.566,11.566,0,1,0,11.559-11.953,11.774,11.774,0,0,0-11.559,11.953" transform="translate(-595.78 -137.672)" fill="none"/>
    </clipPath>
  </defs>
  <g id="Group_34" data-name="Group 34" transform="translate(0 0)">
    <g id="Group_31" data-name="Group 31">
      <g id="Group_30" data-name="Group 30" clip-path="url(#clip-path)">
        <path id="Path_356" data-name="Path 356" d="M.492.481,29.573,0l-.492,29.89L0,30.371Z" transform="matrix(0.766, -0.643, 0.643, 0.766, -12.069, 9.825)" fill="url(#linear-gradient)"/>
      </g>
    </g>
    <g id="Group_33" data-name="Group 33" transform="translate(12.961)">
      <g id="Group_32" data-name="Group 32" clip-path="url(#clip-path-2)">
        <path id="Path_357" data-name="Path 357" d="M.557.557,33.807,0,33.25,33.25,0,33.807Z" transform="translate(-12.346 11.953) rotate(-45)" fill="url(#linear-gradient)"/>
      </g>
    </g>
  </g>
</svg>
