<svg xmlns="http://www.w3.org/2000/svg" xmlns:xlink="http://www.w3.org/1999/xlink" width="32.994" height="21.139" viewBox="0 0 32.994 21.139"><defs><style>.a{fill:url(#a);}.b{clip-path:url(#c);}.c{clip-path:url(#e);}</style><linearGradient id="a" x1="0.487" y1="1.173" x2="-0.06" y2="0.541" gradientUnits="objectBoundingBox"><stop offset="0" stop-color="#460a72"/><stop offset="1" stop-color="#e8a690"/></linearGradient><clipPath id="c"><path class="a" d="M459.606,153.521a10.579,10.579,0,0,0,10.57,10.57,10.461,10.461,0,0,0,5.925-1.825,10.657,10.657,0,0,1-2.137-1.93,7.723,7.723,0,0,1-3.788.994,7.809,7.809,0,1,1,3.791-14.629,10.647,10.647,0,0,1,2.133-1.923,10.558,10.558,0,0,0-16.494,8.743" transform="translate(-459.606 -142.951)"/></clipPath><clipPath id="e"><path class="a" d="M469.129,153.521a7.809,7.809,0,1,1,7.809,7.809,7.818,7.818,0,0,1-7.809-7.809m-2.761,0a10.57,10.57,0,1,0,10.57-10.57,10.581,10.581,0,0,0-10.57,10.57" transform="translate(-466.368 -142.951)"/></clipPath></defs><g class="b"><rect class="a" width="26.223" height="26.796" transform="matrix(0.766, -0.643, 0.643, 0.766, -10.409, 8.734)"/></g><g transform="translate(11.853)"><g class="c"><rect class="a" width="29.897" height="29.897" transform="translate(-10.57 10.57) rotate(-45)"/></g></g></svg>