<svg id="lending" xmlns="http://www.w3.org/2000/svg" xmlns:xlink="http://www.w3.org/1999/xlink" width="32.993" height="21.14" viewBox="0 0 32.993 21.14">
  <defs>
    <linearGradient id="linear-gradient" x1="-0.091" y1="0.014" x2="0.691" y2="0.845" gradientUnits="objectBoundingBox">
      <stop offset="0" stop-color="#460a72"/>
      <stop offset="1" stop-color="#e8a690"/>
    </linearGradient>
    <clipPath id="clip-path">
      <path id="Path_671" data-name="Path 671" d="M459.606,153.521a10.579,10.579,0,0,0,10.57,10.57,10.461,10.461,0,0,0,5.925-1.825,10.658,10.658,0,0,1-2.137-1.93,7.723,7.723,0,0,1-3.788.994,7.809,7.809,0,1,1,3.791-14.629,10.647,10.647,0,0,1,2.133-1.923,10.558,10.558,0,0,0-16.494,8.743" transform="translate(-459.606 -142.951)" fill="url(#linear-gradient)"/>
    </clipPath>
    <clipPath id="clip-path-2">
      <path id="Path_672" data-name="Path 672" d="M469.129,153.521a7.809,7.809,0,1,1,7.809,7.809,7.809,7.809,0,0,1-7.809-7.809m-2.761,0a10.57,10.57,0,1,0,10.57-10.57,10.57,10.57,0,0,0-10.57,10.57" transform="translate(-466.368 -142.951)" fill="url(#linear-gradient)"/>
    </clipPath>
  </defs>
  <g id="Group_657" data-name="Group 657" clip-path="url(#clip-path)">
    <rect id="Rectangle_1193" data-name="Rectangle 1193" width="26.223" height="26.796" transform="matrix(0.766, -0.643, 0.643, 0.766, -10.409, 8.734)" fill="url(#linear-gradient)"/>
  </g>
  <g id="Group_659" data-name="Group 659" transform="translate(11.853)">
    <g id="Group_658" data-name="Group 658" clip-path="url(#clip-path-2)">
      <rect id="Rectangle_1194" data-name="Rectangle 1194" width="29.897" height="29.897" transform="translate(-10.57 10.57) rotate(-45)" fill="url(#linear-gradient)"/>
    </g>
  </g>
</svg>
