<svg xmlns="http://www.w3.org/2000/svg" width="35.182" height="27.3" viewBox="0 0 35.182 27.3">
    <defs>
        <style>
            .cls-1{fill:#fff}.cls-2{fill:#ff5f00}.cls-3{fill:#eb001b}.cls-4{fill:#f79e1b}
        </style>
    </defs>
    <g id="Group_46" data-name="Group 46" transform="translate(-1210.912 -515.798)">
        <path id="Path_339" d="M1217.315 543.037v-1.812a1.063 1.063 0 0 0-1.148-1.147 1.191 1.191 0 0 0-1.027.513 1.056 1.056 0 0 0-.966-.513.976.976 0 0 0-.846.422v-.362h-.634v2.9h.634v-1.6c0-.514.272-.755.695-.755s.634.271.634.755v1.6h.634v-1.6a.668.668 0 0 1 .695-.755c.423 0 .634.271.634.755v1.6zm9.392-2.9h-1.027v-.876h-.634v.876h-.574v.574h.574v1.329c0 .664.271 1.057 1 1.057a1.684 1.684 0 0 0 .785-.212l-.181-.543a1 1 0 0 1-.543.151c-.3 0-.423-.182-.423-.484v-1.3h1.027v-.574zm5.375-.06a.852.852 0 0 0-.755.422v-.362h-.634v2.9h.634v-1.631c0-.483.211-.755.6-.755a1.785 1.785 0 0 1 .393.061l.181-.6a2.011 2.011 0 0 0-.423-.03zm-8.124.3a2.066 2.066 0 0 0-1.177-.3c-.725 0-1.208.362-1.208.936 0 .483.362.755 1 .845l.3.031c.332.06.514.151.514.3 0 .211-.242.362-.665.362a1.664 1.664 0 0 1-.966-.3l-.3.483a2.132 2.132 0 0 0 1.238.363c.846 0 1.329-.393 1.329-.937 0-.513-.393-.785-1-.875l-.3-.031c-.272-.03-.483-.09-.483-.271 0-.212.211-.333.544-.333a2.176 2.176 0 0 1 .906.242l.271-.513zm16.852-.3a.851.851 0 0 0-.755.422v-.362h-.635v2.9h.635v-1.631c0-.483.211-.755.6-.755a1.786 1.786 0 0 1 .392.061l.181-.6a2 2 0 0 0-.422-.03zm-8.094 1.51a1.451 1.451 0 0 0 1.54 1.51 1.5 1.5 0 0 0 1.027-.333l-.3-.513a1.22 1.22 0 0 1-.755.272.858.858 0 0 1-.876-.936.892.892 0 0 1 .876-.937 1.22 1.22 0 0 1 .755.272l.3-.513a1.5 1.5 0 0 0-1.027-.332 1.45 1.45 0 0 0-1.54 1.51zm5.859 0v-1.45h-.634v.362a1.094 1.094 0 0 0-.906-.422 1.511 1.511 0 0 0 0 3.02 1.018 1.018 0 0 0 .906-.423v.362h.634zm-2.326 0a.878.878 0 1 1 1.752 0 .878.878 0 1 1-1.752 0zm-7.579-1.51a1.511 1.511 0 0 0 .03 3.02 1.845 1.845 0 0 0 1.177-.393l-.3-.453a1.441 1.441 0 0 1-.845.3.815.815 0 0 1-.876-.7H1230v-.241a1.334 1.334 0 0 0-1.328-1.54zm0 .543a.706.706 0 0 1 .724.7h-1.51a.766.766 0 0 1 .786-.7zm15.733.967v-2.6h-.634v1.51a1.092 1.092 0 0 0-.906-.422 1.511 1.511 0 0 0 0 3.02 1.016 1.016 0 0 0 .906-.423v.362h.634zm-2.325 0a.878.878 0 1 1 1.751 0 .877.877 0 1 1-1.751 0zm-21.2 0v-1.45h-.634v.362a1.092 1.092 0 0 0-.906-.422 1.511 1.511 0 0 0 0 3.02 1.016 1.016 0 0 0 .906-.423v.362h.634zm-2.355 0a.878.878 0 1 1 1.751 0 .877.877 0 1 1-1.751 0z" class="cls-1" data-name="Path 339"/>
        <path id="Rectangle_12" d="M0 0h9.513v17.093H0z" class="cls-2" data-name="Rectangle 12" transform="translate(1223.747 518.123)"/>
        <path id="Path_340" d="M1224.351 526.669a10.9 10.9 0 0 1 4.137-8.546 10.872 10.872 0 1 0 0 17.093 10.858 10.858 0 0 1-4.137-8.547z" class="cls-3" data-name="Path 340"/>
        <path id="Path_341" d="M1246.094 526.669a10.86 10.86 0 0 1-17.575 8.547 10.9 10.9 0 0 0 0-17.093 10.86 10.86 0 0 1 17.575 8.546z" class="cls-4" data-name="Path 341"/>
    </g>
</svg>
