<svg xmlns="http://www.w3.org/2000/svg" xmlns:xlink="http://www.w3.org/1999/xlink" width="35.065" height="23.767" viewBox="0 0 35.065 23.767">
  <defs>
    <linearGradient id="linear-gradient" x1="0.5" x2="0.5" y2="1" gradientUnits="objectBoundingBox">
      <stop offset="0" stop-color="#e8a690"/>
      <stop offset="0.02" stop-color="#e8a690"/>
      <stop offset="0.171" stop-color="#d6948d"/>
      <stop offset="0.475" stop-color="#a66684"/>
      <stop offset="0.9" stop-color="#591c76"/>
      <stop offset="1" stop-color="#460a72"/>
    </linearGradient>
  </defs>
  <g id="mobileme-logo-of-black-cloud" transform="translate(0 -69.296)">
    <path id="MobileMe" d="M35.065,86.127a6.91,6.91,0,0,1-6.884,6.935H6.883A6.94,6.94,0,0,1,5.8,79.278a4.424,4.424,0,0,1-.065-.75A4.378,4.378,0,0,1,10.1,74.134a4.315,4.315,0,0,1,2.819,1.043c1.354-3.075,3.09-5.881,7.961-5.881,5.907,0,8.707,4.59,8.707,9.434,0,.2-.008.4-.022.6A6.925,6.925,0,0,1,35.065,86.127Z" fill="url(#linear-gradient)"/>
  </g>
</svg>
