<svg xmlns="http://www.w3.org/2000/svg" width="13.453" height="17.938" viewBox="0 0 13.453 17.938">
    <defs>
        <style>
            .cls-1{fill:gray}
        </style>
    </defs>
    <g id="Group_47" data-name="Group 47" transform="translate(-314.701 -250.479)">
        <path id="Path_342" d="M321.428 251.331a5.882 5.882 0 0 1 5.875 5.875c0 1.318-1.135 3.623-3.194 6.489a56.612 56.612 0 0 1-2.681 3.421c-.633-.748-1.656-2-2.672-3.409-2.066-2.872-3.2-5.181-3.2-6.5a5.882 5.882 0 0 1 5.876-5.875m0-.852a6.727 6.727 0 0 0-6.727 6.727c0 3.715 6.727 11.211 6.727 11.211s6.726-7.5 6.726-11.211a6.726 6.726 0 0 0-6.726-6.727" class="cls-1" data-name="Path 342"/>
        <path id="Path_343" d="M321.428 255.161a1.671 1.671 0 1 1-1.671 1.671 1.673 1.673 0 0 1 1.671-1.671m0-.852a2.522 2.522 0 1 0 2.522 2.523 2.524 2.524 0 0 0-2.522-2.523" class="cls-1" data-name="Path 343"/>
    </g>
</svg>
