<svg xmlns="http://www.w3.org/2000/svg" width="39.289" height="24.785" viewBox="0 0 39.289 24.785">
    <defs>
        <style>
            .cls-1{fill:#fff}.cls-2,.cls-3{fill:#005882;fill-rule:evenodd}.cls-3{fill:#f2a52c}
        </style>
    </defs>
    <g id="Group_45" data-name="Group 45" transform="translate(-1280.791 -517.055)">
        <rect id="Rectangle_11" width="39.288" height="24.785" class="cls-1" data-name="Rectangle 11" rx="3.315" transform="translate(1280.791 517.055)"/>
        <path id="Path_332" d="M1320.08 519.878c0-1.887-.981-2.823-2.883-2.823h-33.523a2.665 2.665 0 0 0-2.11.772 2.747 2.747 0 0 0-.773 2.051v19.139a2.765 2.765 0 0 0 .773 2.05 2.864 2.864 0 0 0 2.11.773h33.526c1.9 0 2.883-.951 2.883-2.823v-19.139zm-2.88-2.378a2.109 2.109 0 0 1 2.377 2.377v19.139a2.1 2.1 0 0 1-2.377 2.377h-33.523a2.293 2.293 0 0 1-2.437-2.377v-19.138a2.122 2.122 0 0 1 2.437-2.377z" class="cls-2" data-name="Path 332"/>
        <path id="Path_333" d="M1283.942 518.6a1.767 1.767 0 0 0-1.263.327 2.132 2.132 0 0 0-.283 1.278v4.146h36.079v-4.146a1.413 1.413 0 0 0-1.6-1.605z" class="cls-2" data-name="Path 333"/>
        <path id="Path_334" d="M1282.4 538.631c0 1.1.52 1.664 1.546 1.664h32.928a1.449 1.449 0 0 0 1.6-1.664v-4.146H1282.4v4.146z" class="cls-3" data-name="Path 334"/>
        <path id="Path_335" d="M1294.343 526.119a.766.766 0 0 1-.1.446l-2.6 4.532-.164-5.528h-4.16l1.4.669a1.14 1.14 0 0 1 .609.995l.386 5.87h2.036l4.874-7.534h-2.5a.739.739 0 0 1 .223.55z" class="cls-2" data-name="Path 335"/>
        <path id="Path_336" d="M1311.164 525.792l.163-.223h-2.541c.09.089.119.134.119.164a2.553 2.553 0 0 1-.119.282l-3.7 6.746a5.66 5.66 0 0 1-.282.342h2.1l-.1-.223a3.192 3.192 0 0 1 .327-1.055l.446-.832h2.155c.089.7.148 1.278.178 1.709l-.178.4h2.6l-.386-.565-.773-6.746zm-1.545 4.146h-1.546l1.323-2.541.223 2.541z" class="cls-2" data-name="Path 336"/>
        <path id="Path_337" d="M1303.2 525.183a3.429 3.429 0 0 0-2.095.668 1.69 1.69 0 0 0-.995 1.487 2.384 2.384 0 0 0 .713 1.768l1.441.995c.52.372.773.7.773 1a.9.9 0 0 1-.386.728 1.394 1.394 0 0 1-.892.282 6.936 6.936 0 0 1-2.645-1.055v1.382a5.467 5.467 0 0 0 2.808.877 3.254 3.254 0 0 0 2.215-.773 1.949 1.949 0 0 0 .222-3.254l-1.382-1c-.46-.371-.713-.7-.713-.95 0-.58.342-.877 1.04-.877a4.665 4.665 0 0 1 2.11.832l.283-1.442a4.962 4.962 0 0 0-2.5-.668z" class="cls-2" data-name="Path 337"/>
        <path id="Path_338" d="M1297.672 533.1c-.03-.312-.09-.594-.119-.892l1.887-6.092.446-.55h-2.719c.029.134.059.312.089.446a2.3 2.3 0 0 1-.03.446l-1.887 6.033-.387.609z" class="cls-2" data-name="Path 338"/>
    </g>
</svg>
