<svg xmlns="http://www.w3.org/2000/svg" xmlns:xlink="http://www.w3.org/1999/xlink" width="26.705" height="21.993" viewBox="0 0 26.705 21.993"><defs><style>.a{fill:url(#a);}.b{opacity:0.99;}.c{clip-path:url(#c);}.d{clip-path:url(#d);}</style><linearGradient id="a" x1="0.511" y1="1.275" x2="0.493" y2="-0.005" gradientUnits="objectBoundingBox"><stop offset="0" stop-color="#460a72"/><stop offset="1" stop-color="#e8a690"/></linearGradient><clipPath id="c"><rect class="a" width="26.705" height="21.993"/></clipPath><clipPath id="d"><path class="a" d="M413.74,147.909v-4.958H400.046a6.63,6.63,0,0,0-6.623,6.622v8.75a6.63,6.63,0,0,0,6.623,6.622h20.082V147.922Zm-13.694-2.25h10.986V147.9l-14.513-.029a3.919,3.919,0,0,1,3.527-2.216m0,16.577a3.919,3.919,0,0,1-3.915-3.914v-7.741l21.289.044v4.214h-2.442a1.354,1.354,0,0,0,0,2.708h2.442v4.689Z" transform="translate(-393.423 -142.951)"/></clipPath></defs><g class="b"><g class="c"><g transform="translate(0 0)"><g class="d"><rect class="a" width="22.308" height="26.964" transform="translate(-0.261 21.99) rotate(-89.321)"/></g></g></g></g></svg>