<?xml version="1.0" encoding="UTF-8"?>
<svg width="48px" height="48px" viewBox="0 0 48 48" version="1.1" xmlns="http://www.w3.org/2000/svg" xmlns:xlink="http://www.w3.org/1999/xlink">
    <!-- Generator: Sketch 49.1 (51147) - http://www.bohemiancoding.com/sketch -->
    <title>xmr</title>
    <desc>Created with Sketch.</desc>
    <defs></defs>
    <g id="48px" stroke="none" stroke-width="1" fill="none" fill-rule="evenodd">
        <g id="xmr" fill-rule="nonzero">
            <circle id="Oval" fill="#FF6600" cx="24" cy="24" r="24"></circle>
            <path d="M23.9560001,7.852 C32.932,7.852 40.192,15.112 40.192,24.088 C40.192,25.8919999 39.8839999,27.6079999 39.3559999,29.236 L34.516,29.236 L34.516,15.5959999 L23.9560001,26.1559999 L13.396,15.5959999 L13.396,29.236 L8.556,29.236 C8.028,27.6079999 7.72000001,25.8919999 7.72000001,24.088 C7.72000001,15.112 14.98,7.852 23.9560001,7.852 Z M21.5359999,28.5319999 L24,30.952 L26.4199999,28.5319999 L30.996,23.9119999 L30.996,32.492 L31.348,32.492 L34.516,32.492 L37.816,32.492 C34.9999999,37.1560001 29.808,40.2799999 23.9560001,40.2799999 C18.1039999,40.2799999 12.956,37.1560001 10.096,32.492 L13.396,32.492 L15.156,32.492 L16.9159999,32.492 L16.9159999,23.9119999 L21.5359999,28.5319999 Z" id="Shape" fill="#FFFFFF"></path>
        </g>
    </g>
</svg>