<?xml version="1.0" encoding="UTF-8"?>
<svg width="28px" height="28px" viewBox="0 0 28 28" version="1.1" xmlns="http://www.w3.org/2000/svg" xmlns:xlink="http://www.w3.org/1999/xlink">
    <!-- Generator: Sketch 53.2 (72643) - https://sketchapp.com -->
    <title>Group 27</title>
    <desc>Created with Sketch.</desc>
    <g id="Dark-Theme" stroke="none" stroke-width="1" fill="none" fill-rule="evenodd">
        <g id="Dark---Dashboard-w-Requests" transform="translate(-984.000000, -879.000000)">
            <g id="Group-43" transform="translate(960.000000, 534.000000)">
                <g id="Group-14-Copy-2">
                    <g id="Group-66" transform="translate(0.000000, 345.000000)">
                        <g id="Group-27" transform="translate(24.000000, 0.000000)">
                            <circle id="Oval" fill="#3CC8C8" cx="14" cy="14" r="14"></circle>
                            <path d="M14.1650588,6.17417067 C14.5634417,5.96979424 15.0497449,6.44391519 14.8380782,6.83549432 C14.7151544,7.154692 14.2490491,7.23957161 14.0109698,6.99626205 C13.7587246,6.76275321 13.8409785,6.30122034 14.1650588,6.17417067 Z M9.88008856,6.62860027 C10.1220978,6.53059309 10.4284478,6.7487265 10.4037716,7.00822073 C10.4294531,7.28992392 10.0793258,7.49726754 9.83265554,7.36338434 C9.50583348,7.23885228 9.54321328,6.71689665 9.88008856,6.62860027 Z M18.6562119,7.37129685 C18.2780269,7.32633942 18.2181643,6.74135348 18.5822749,6.62356504 C18.8646799,6.48806338 19.1237796,6.74216272 19.1650893,7.00552328 C19.1058665,7.2304003 18.9144892,7.43630528 18.6562119,7.37129685 Z M10.8550712,8.42285089 C11.2596689,8.17108935 11.8369998,8.54603422 11.774761,9.00837633 C11.7537405,9.47521417 11.123493,9.74567804 10.7678821,9.43007693 C10.4240609,9.18218171 10.476155,8.61347036 10.8550712,8.42285089 Z M17.0315151,8.68998788 C17.2120166,8.23232135 17.9434364,8.21847447 18.1488883,8.66400249 C18.351964,9.01071412 18.1021864,9.44005747 17.7403607,9.55793587 C17.2610948,9.64596243 16.8058652,9.13623523 17.0315151,8.68998788 Z M13.6490527,9.53195043 C13.6451228,9.13857302 14.0093247,8.84545064 14.3893376,8.81865602 C14.6414001,8.86837893 14.9161281,8.97402886 15.0242463,9.22426186 C15.2257682,9.56944495 15.0468204,10.0447348 14.6827098,10.2031647 C14.5161914,10.2949678 14.3193305,10.2605304 14.1380063,10.2498306 C13.8608108,10.1159473 13.6273926,9.85339597 13.6490527,9.53195043 Z M7.27666191,10.1051575 C7.64625601,9.88162923 8.1448973,10.2895729 8.00497431,10.6845688 C7.92792984,11.0262452 7.46109338,11.1652535 7.19422524,10.9471201 C6.90935264,10.7427436 6.95450087,10.2513591 7.27666191,10.1051575 Z M20.9605087,10.1044382 C21.2740788,9.86490505 21.7915471,10.1396848 21.7541672,10.5291959 C21.7751877,10.8843596 21.327818,11.1522158 21.0165327,10.9693291 C20.6737168,10.8177327 20.6387133,10.2988341 20.9605087,10.1044382 Z M15.4410906,10.8116184 C15.9585589,10.6287316 16.5731782,10.8475844 16.868104,11.3014745 C17.2571649,11.856339 17.0501593,12.7013586 16.4464158,13.0197471 C15.8208293,13.3963104 14.9073543,13.0771127 14.6763123,12.3898037 C14.4140138,11.7745165 14.7961288,11.0044857 15.4410906,10.8116184 Z M12.4050085,10.8721311 C12.9785009,10.6058033 13.7503164,10.8292418 14.0273292,11.4064051 C14.3533287,11.968193 14.1012663,12.7504521 13.5184519,13.0405174 C12.9349063,13.3665486 12.1116364,13.1193727 11.8292313,12.516224 C11.5125539,11.9329464 11.7937708,11.1407068 12.4050085,10.8721311 Z M9.36499651,11.8946426 C9.40859104,11.531117 9.75716475,11.294551 10.1088457,11.2700942 C10.4877619,11.3150516 10.7904563,11.6045774 10.8316746,11.9818601 C10.8068156,12.3553663 10.5134435,12.7204206 10.1111306,12.7181727 C9.66851333,12.7556672 9.2804578,12.3224575 9.36499651,11.8946426 Z M18.3441956,11.3491293 C18.7986026,11.0889158 19.4295812,11.467727 19.4093833,11.9813206 C19.4405484,12.5254852 18.742213,12.908972 18.2897252,12.5897744 C17.81969,12.3239861 17.8563387,11.575445 18.3441956,11.3491293 Z M11.1694639,13.2670129 C11.7009153,13.1231492 12.3085887,13.3696057 12.5692421,13.8502005 C12.8547545,14.3339424 12.7380453,15.0059659 12.2946055,15.3607698 C11.7258656,15.881197 10.6769459,15.6722348 10.3742516,14.9619975 C10.0264091,14.3109242 10.4489199,13.4383906 11.1694639,13.2670129 Z M16.9280579,13.2643154 C17.4447037,13.1189232 18.051646,13.3148476 18.3293899,13.777909 C18.6966077,14.3075074 18.5213156,15.0974093 17.9746015,15.4388159 C17.4019317,15.8352504 16.5148693,15.6270976 16.1997456,15.0072247 C15.817722,14.366042 16.2021218,13.4598802 16.9280579,13.2643154 Z M7.75126679,13.8685432 C8.21033483,13.697705 8.71921217,14.1961029 8.53322701,14.6438788 C8.41962526,15.0518224 7.83525714,15.2026096 7.5333854,14.9018445 C7.18015069,14.619422 7.31093435,13.9910072 7.75126679,13.8685432 Z M20.1944509,14.5183577 C20.1811989,14.1441322 20.4594912,13.8127061 20.8495574,13.7920256 C21.16395,13.8410292 21.4696602,14.0905429 21.4448013,14.427274 C21.4735901,14.8719928 20.9288866,15.1742864 20.5437557,14.9653244 C20.3632542,14.8750499 20.2706729,14.6928824 20.1944509,14.5183577 Z M5.49403754,14.0882051 C5.7702278,13.9696074 6.11185558,14.2050944 6.04879427,14.5068486 C6.03398857,14.848525 5.52127272,14.9798906 5.33291134,14.694411 C5.16648432,14.4961487 5.26610291,14.1904382 5.49403754,14.0882051 Z M22.908372,14.0813716 C23.1028567,13.9451506 23.4148731,14.0430678 23.4919176,14.2665961 C23.6226098,14.510715 23.3829768,14.8451982 23.1036792,14.8039272 C22.7116025,14.8390839 22.5847487,14.2512208 22.908372,14.0813716 Z M12.6695919,15.7215082 C13.3963505,15.5355643 14.1775796,16.1317896 14.1821493,16.8680123 C14.2295823,17.6119677 13.460143,18.2716729 12.7162023,18.0998456 C12.1411563,18.0087619 11.6899481,17.4637881 11.7085923,16.8921095 C11.7070386,16.3453373 12.1264421,15.8371386 12.6695919,15.7215082 Z M15.5477465,15.7199796 C16.285381,15.5171318 17.0899153,16.1240569 17.078217,16.8772735 C17.1171505,17.607472 16.3717475,18.2449682 15.6433438,18.1001153 C14.9578948,18.0128979 14.4521248,17.2719997 14.6435022,16.6175995 C14.7401048,16.1815125 15.11043,15.8268883 15.5477465,15.7199796 Z M9.99844274,16.1731504 C10.5088738,16.0874616 10.9874086,16.6477209 10.780403,17.1245394 C10.6294214,17.6326481 9.87780375,17.7704876 9.54549809,17.3554406 C9.15570609,16.9568482 9.44670202,16.2281783 9.99844274,16.1731504 Z M18.4390618,16.1955392 C18.8941999,16.0079768 19.4528865,16.39533 19.4178829,16.8813197 C19.4361615,17.416313 18.7464171,17.7852336 18.3013322,17.4729594 C17.7972073,17.1926049 17.888966,16.3675463 18.4390618,16.1955392 Z M20.7982858,18.5236142 C20.620069,18.1967738 20.9437838,17.7635641 21.3126467,17.8240768 C21.4962557,17.8210197 21.6246631,17.9633549 21.7421947,18.0827618 C21.7663225,18.2764384 21.8068098,18.5075195 21.6433987,18.6567781 C21.421496,18.9330864 20.9188334,18.8542311 20.7982858,18.5236142 Z M7.27510822,17.9150706 C7.61984337,17.6892944 8.11592565,18.0260255 8.03842422,18.42255 C7.99720589,18.7732178 7.5481911,18.973638 7.2524427,18.7746565 C6.93503412,18.5940175 6.94673246,18.0797047 7.27510822,17.9150706 Z M14.0857295,18.6491353 C14.5370291,18.4532109 15.1119837,18.8397548 15.0692117,19.3288016 C15.1026616,19.8691898 14.3915311,20.2434154 13.9502847,19.9189127 C13.460143,19.6402666 13.5418485,18.820513 14.0857295,18.6491353 Z M10.9312931,19.3731296 C11.3156929,19.1741481 11.8315162,19.5178026 11.7965126,19.9410318 C11.8082109,20.2885526 11.4634757,20.5847321 11.1149021,20.5333907 C10.826191,20.5272765 10.637921,20.2726377 10.5453397,20.0304971 C10.5500921,19.766597 10.6604951,19.4726654 10.9312931,19.3731296 Z M17.3209573,19.3792438 C17.7162329,19.1389015 18.2780269,19.4840846 18.2406471,19.9367158 C18.2507917,20.4097578 17.6158832,20.7127708 17.2478428,20.4020252 C16.8915007,20.1584459 16.9350038,19.5729205 17.3209573,19.3792438 Z M18.4321158,22.0818142 C18.2562753,21.8200721 18.4632809,21.5047407 18.7487933,21.4450373 C18.978373,21.4909838 19.2211134,21.6608329 19.1728577,21.9226649 C19.1394078,22.2770193 18.6126174,22.3857264 18.4321158,22.0818142 Z M9.61166677,21.8545094 C9.68167396,21.6470759 9.85129977,21.4409012 10.0995236,21.4948501 C10.4613493,21.5201162 10.5687363,22.056638 10.2520589,22.2219914 C9.9672777,22.4109025 9.63689127,22.1522175 9.61166677,21.8545094 Z M13.8670255,22.0925141 C13.9363015,21.7856347 14.3400767,21.6363761 14.6062137,21.7993917 C14.7820542,21.8736613 14.8334172,22.0672479 14.8785655,22.2317921 C14.8544377,22.317481 14.8328689,22.4032597 14.8116656,22.4889486 C14.7027249,22.6159983 14.5627106,22.7430479 14.3813864,22.7384622 C14.0444197,22.7773055 13.740446,22.4025404 13.8670255,22.0925141 Z" id="Shape" fill="#FFFFFF" fill-rule="nonzero"></path>
                        </g>
                    </g>
                </g>
            </g>
        </g>
    </g>
</svg>