<?xml version="1.0" encoding="UTF-8"?>
<svg width="36px" height="36px" viewBox="0 0 36 36" version="1.1" xmlns="http://www.w3.org/2000/svg" xmlns:xlink="http://www.w3.org/1999/xlink">
    <!-- Generator: Sketch 53.2 (72643) - https://sketchapp.com -->
    <title>Group 6</title>
    <desc>Created with Sketch.</desc>
    <g id="Dark-Theme" stroke="none" stroke-width="1" fill="none" fill-rule="evenodd">
        <g id="Dark---Dashboard-w-Requests" transform="translate(-204.000000, -1368.000000)" fill-rule="nonzero">
            <g id="Recent-Activity" transform="translate(120.000000, 1172.000000)">
                <g id="Group-6">
                    <g transform="translate(84.000000, 196.000000)">
                        <circle id="Oval" fill="#F7931A" cx="18" cy="18" r="18"></circle>
                        <path d="M26.0875717,15.7727077 C26.4403717,13.4144308 24.6448025,12.146677 22.1896025,11.3009538 L22.9860332,8.10636923 L21.0414793,7.62175385 L20.2660948,10.7321538 C19.7548948,10.6047692 19.2298486,10.4845846 18.7081255,10.3655077 L19.4890486,7.23461538 L17.5456025,6.75 L16.7486178,9.94347692 C16.3254793,9.8471077 15.9100948,9.75184615 15.5068948,9.6516 L15.5091102,9.64163077 L12.827387,8.97203077 L12.3100948,11.0489538 C12.3100948,11.0489538 13.752864,11.3796 13.7224025,11.4000923 C14.5099717,11.5967077 14.6523102,12.117877 14.6284948,12.5310462 L13.7212948,16.1703692 C13.7755717,16.1842153 13.8459102,16.2041538 13.9234486,16.2351692 C13.8586486,16.2191077 13.7894178,16.2013847 13.7179717,16.1842153 L12.446341,21.2823692 C12.3499717,21.5216308 12.1057255,21.880523 11.5552025,21.744277 C11.574587,21.772523 10.1417871,21.391477 10.1417871,21.391477 L9.17643323,23.6173846 L11.7069563,24.2482153 C12.1777255,24.3661846 12.6390793,24.4896923 13.0932332,24.606 L12.2884948,27.8371385 L14.2308332,28.3217538 L15.0278178,25.1249538 C15.5584025,25.2689538 16.0734793,25.401877 16.5774793,25.5270462 L15.783264,28.7088923 L17.7278178,29.1935077 L18.5325563,25.9684615 C21.8484332,26.5959692 24.3418486,26.3428615 25.391387,23.3437846 C26.2371102,20.9290153 25.3492948,19.5360923 23.6046793,18.6277846 C24.8752025,18.3348 25.8322486,17.4990462 26.0875717,15.7727077 L26.0875717,15.7727077 Z M21.6446178,22.002923 C21.0436948,24.4176923 16.9779102,23.112277 15.6597563,22.7849538 L16.7275717,18.504277 C18.0457255,18.8332615 22.2726793,19.4845846 21.6446178,22.002923 Z M22.2460948,15.7378153 C21.697787,17.9343692 18.313787,16.8183692 17.216064,16.5447692 L18.184187,12.6623077 C19.2819102,12.9359077 22.8171102,13.4465538 22.2460948,15.7378153 Z" id="Shape" fill="#FFFFFF"></path>
                    </g>
                </g>
            </g>
        </g>
    </g>
</svg>