<?xml version="1.0" encoding="UTF-8"?>
<svg width="28px" height="28px" viewBox="0 0 28 28" version="1.1" xmlns="http://www.w3.org/2000/svg" xmlns:xlink="http://www.w3.org/1999/xlink">
    <!-- Generator: Sketch 53.2 (72643) - https://sketchapp.com -->
    <title>Group 25</title>
    <desc>Created with Sketch.</desc>
    <g id="Dark-Theme" stroke="none" stroke-width="1" fill="none" fill-rule="evenodd">
        <g id="Dark---Dashboard-w-Requests" transform="translate(-984.000000, -946.000000)">
            <g id="Group-43" transform="translate(960.000000, 534.000000)">
                <g id="Group-14-Copy-2">
                    <g id="Group-66" transform="translate(0.000000, 345.000000)">
                        <g id="Group-25" transform="translate(24.000000, 67.000000)">
                            <circle id="Oval" fill="#4DCB5B" cx="14" cy="14" r="14"></circle>
                            <path d="M20.0906976,12.2853256 C20.3637956,10.4464934 18.9738682,9.45798065 17.0733291,8.79854034 L17.689836,6.30760926 L16.1845816,5.92973744 L15.5843662,8.35502678 C15.1886528,8.25570047 14.7822212,8.16198826 14.378362,8.06913975 L14.9828647,5.62787183 L13.4784677,5.25 L12.861532,7.74006737 C12.5339858,7.66492486 12.2124419,7.59064605 11.9003299,7.51248057 L11.9020448,7.5047072 L9.82615698,6.9825963 L9.42572764,8.60204699 C9.42572764,8.60204699 10.542557,8.85986354 10.5189771,8.87584211 C11.1286244,9.02915012 11.2388068,9.43552427 11.2203716,9.757687 L10.5181196,12.5953964 C10.5601347,12.6061928 10.6145828,12.6217395 10.6746044,12.6459233 C10.6244435,12.6333995 10.5708528,12.6195803 10.5155472,12.6061928 L9.53119407,16.5814044 C9.45659582,16.7679651 9.26752796,17.0478062 8.84137508,16.9415703 C8.8563804,16.9635947 7.74726816,16.6664796 7.74726816,16.6664796 L7,18.4020988 L8.9588458,18.8939799 C9.32326225,18.9859648 9.6803904,19.0822681 10.0319451,19.1729573 L9.40900736,21.6923908 L10.9125468,22.0702626 L11.5294825,19.5776041 C11.9402014,19.689886 12.3389158,19.7935309 12.7290558,19.8911297 L12.1142638,22.3721282 L13.6195183,22.75 L14.2424561,20.235317 C16.8092343,20.724607 18.7393555,20.5272499 19.5517899,18.1887632 C20.2064534,16.3058818 19.5192068,15.2197703 18.1687221,14.5115305 C19.152218,14.28308 19.8930552,13.631413 20.0906976,12.2853256 L20.0906976,12.2853256 Z M16.579269,16.4854113 C16.1445794,18.2008448 13.2035129,17.2734878 12.25,17.0409599 L13.0224255,14 C13.9759384,14.2337081 17.0335899,14.696403 16.579269,16.4854113 Z M17.4467642,12.066544 C16.9756623,13.8103155 14.0681553,12.92436 13.125,12.707158 L13.9568039,9.625 C14.8999593,9.842202 17.9373762,10.2475871 17.4467642,12.066544 Z" id="btc-e" fill="#FFFFFF" fill-rule="nonzero" transform="translate(13.562500, 14.000000) rotate(-37.000000) translate(-13.562500, -14.000000) "></path>
                        </g>
                    </g>
                </g>
            </g>
        </g>
    </g>
</svg>