<?xml version="1.0" encoding="UTF-8"?>
<svg width="44px" height="44px" viewBox="0 0 44 44" version="1.1" xmlns="http://www.w3.org/2000/svg" xmlns:xlink="http://www.w3.org/1999/xlink">
    <!-- Generator: Sketch 53.2 (72643) - https://sketchapp.com -->
    <title>xmr</title>
    <desc>Created with Sketch.</desc>
    <g id="Dark-Theme" stroke="none" stroke-width="1" fill="none" fill-rule="evenodd">
        <g id="Dark---Wallet" transform="translate(-142.000000, -1067.000000)" fill-rule="nonzero">
            <g id="Group-23" transform="translate(0.000000, 846.000000)">
                <g id="Group-22" transform="translate(120.000000, 0.000000)">
                    <g id="Group-18" transform="translate(0.000000, 57.000000)">
                        <g id="Group-20" transform="translate(0.000000, 56.000000)">
                            <g id="Group-54-Copy-3">
                                <g id="Group-47-Copy-3">
                                    <g id="Group-8-Copy" transform="translate(22.000000, 108.000000)">
                                        <g id="xmr">
                                            <ellipse id="Oval" fill="#FF6600" cx="22" cy="22.0021075" rx="22" ry="22.0021075"></ellipse>
                                            <path d="M21.9596667,7.19835617 C30.1876667,7.19835617 36.8426667,13.8539937 36.8426667,22.0827819 C36.8426667,23.7366069 36.5603333,25.3097576 36.0763333,26.802234 L31.6396667,26.802234 L31.6396667,14.2977028 L21.9596667,23.9786301 L12.2796667,14.2977028 L12.2796667,26.802234 L7.843,26.802234 C7.359,25.3097576 7.07666667,23.7366069 7.07666667,22.0827819 C7.07666667,13.8539937 13.7316667,7.19835617 21.9596667,7.19835617 Z M19.7413333,26.1568387 L22,28.3753847 L24.2183333,26.1568387 L28.413,21.921433 L28.413,29.7871865 L28.7356667,29.7871865 L31.6396667,29.7871865 L34.6646667,29.7871865 C32.0833333,34.0629294 27.324,36.9268703 21.9596667,36.9268703 C16.5953333,36.9268703 11.8763333,34.0629294 9.25466667,29.7871865 L12.2796667,29.7871865 L13.893,29.7871865 L15.5063333,29.7871865 L15.5063333,21.921433 L19.7413333,26.1568387 Z" id="Shape" fill="#FFFFFF"></path>
                                        </g>
                                    </g>
                                </g>
                            </g>
                        </g>
                    </g>
                </g>
            </g>
        </g>
    </g>
</svg>