<?xml version="1.0" encoding="UTF-8"?>
<svg width="36px" height="36px" viewBox="0 0 36 36" version="1.1" xmlns="http://www.w3.org/2000/svg" xmlns:xlink="http://www.w3.org/1999/xlink">
    <!-- Generator: Sketch 53.2 (72643) - https://sketchapp.com -->
    <title>Group 5</title>
    <desc>Created with Sketch.</desc>
    <g id="Dark-Theme" stroke="none" stroke-width="1" fill="none" fill-rule="evenodd">
        <g id="Dark---Dashboard-w-Requests" transform="translate(-204.000000, -1590.000000)">
            <g id="Recent-Activity" transform="translate(120.000000, 1172.000000)">
                <g id="Group-2">
                    <g transform="translate(0.000000, 398.000000)">
                        <g id="Group-19">
                            <g id="Group-5" transform="translate(84.000000, 20.000000)">
                                <circle id="Oval" fill="#29B830" cx="18" cy="18" r="18"></circle>
                                <path d="M18.6799331,12.911873 L18.6799331,16.2822135 C20.0810073,16.6083755 20.1634234,16.6301197 20.9051686,16.8910492 C22.7595316,17.5433732 23.7073171,18.826277 23.7073171,20.7397607 C23.7073171,23.3055683 21.8323501,25.0450989 18.6799331,25.3712609 L18.6799331,27.2195122 L17.4230871,27.2195122 L17.4230871,25.3712609 C14.2912741,25.1755637 12.3957031,23.414289 12.2926829,20.6092959 L15.2596636,20.6092959 C15.3626838,21.9791763 16.0220129,22.6315002 17.4230871,22.761965 L17.4230871,19.1089508 C16.7019459,18.9567418 15.9602008,18.7175564 15.3008717,18.4566268 C13.4877168,17.7825587 12.5811394,16.5431431 12.5811394,14.716636 C12.5811394,12.2160607 14.4561064,10.4982743 17.4230871,10.3025771 L17.4230871,8.7804878 L18.6799331,8.7804878 L18.6799331,10.3025771 C21.3584573,10.4982743 23.027384,12.1073401 23.2952364,14.7383801 L20.3900678,14.7383801 C20.2664436,13.7164059 19.6689267,13.0640819 18.6799331,12.911873 Z M17.5609756,16.6829268 L17.5609756,13.1707317 C17.1419069,13.2444141 17.0221729,13.2689749 16.8226164,13.3672181 C16.2039911,13.637387 15.804878,14.2268463 15.804878,14.8899881 C15.804878,15.7987378 16.3436807,16.3390756 17.5609756,16.6829268 Z M18.4390244,19.3170732 L18.4390244,22.8292683 C19.5038921,22.715236 20.195122,22.0538486 20.195122,21.1415901 C20.195122,20.1837187 19.6720291,19.6591701 18.4390244,19.3170732 Z" id="$" fill="#FFFFFF"></path>
                            </g>
                        </g>
                    </g>
                </g>
            </g>
        </g>
    </g>
</svg>