<svg xmlns="http://www.w3.org/2000/svg" width="28" height="28" viewBox="0 0 28 28">
  <g id="Group_63" data-name="Group 63" transform="translate(1297 2594)">
    <circle id="Oval" cx="14" cy="14" r="14" transform="translate(-1297 -2594)" fill="#2abbe9"/>
    <path id="ripple" d="M7.543,15.086A7.543,7.543,0,0,1,2.209,2.209,7.543,7.543,0,0,1,12.877,12.877,7.494,7.494,0,0,1,7.543,15.086Zm0-13.907a6.364,6.364,0,1,0,6.364,6.364A6.372,6.372,0,0,0,7.543,1.179ZM9.279,7.986h0A2.208,2.208,0,0,0,9.029,8H9.02l-.1.012-.023,0-.052.008a.272.272,0,0,1-.074-.028.543.543,0,0,1-.1-.889.8.8,0,0,1,.095-.073,2.2,2.2,0,0,0,.315.038l.1,0,.1,0H9.32l.1-.007.017,0,.078-.01.035-.005L9.62,7.03l.045-.009.056-.013L9.763,7l.01,0h0A2.211,2.211,0,1,0,7.23,5.874h0a2.225,2.225,0,0,0,.187.3.6.6,0,0,1-.016.247.544.544,0,0,1-.683.408.989.989,0,0,1-.156-.057,2.212,2.212,0,1,0-.4,2.167l0,0a2.2,2.2,0,0,0,.347-.57.577.577,0,0,1,.9.225,1.285,1.285,0,0,1,.071.266,2.26,2.26,0,0,0-.221.36l-.018.039h0A2.21,2.21,0,1,0,9.279,7.986Zm-4.8.559A1.031,1.031,0,1,1,4.963,6.6l-.006.007a1.025,1.025,0,0,1,.4.383,1.108,1.108,0,0,1,.1.231c0,.014.01.028.015.042a1.031,1.031,0,0,1-1,1.278ZM9.193,3.83a1.031,1.031,0,0,1,.358,2l-.027.01-.018.006-.026.008-.02.006-.025.006-.023.005-.024,0-.025,0-.023,0-.028,0-.021,0-.032,0H9.193l-.06,0h0a1.155,1.155,0,0,1-.17-.025A1.035,1.035,0,0,1,8.313,5.4l0,0-.023-.04,0-.005A1.031,1.031,0,0,1,9.193,3.83Zm.059,7.4a1.031,1.031,0,0,1-.164-2.049l.012,0a1.031,1.031,0,1,1,.152,2.051Zm0,0" transform="translate(-1290.543 -2587.543)" fill="#fff"/>
  </g>
</svg>
