<?xml version="1.0" encoding="UTF-8"?>
<svg width="44px" height="44px" viewBox="0 0 44 44" version="1.1" xmlns="http://www.w3.org/2000/svg" xmlns:xlink="http://www.w3.org/1999/xlink">
    <!-- Generator: Sketch 53.2 (72643) - https://sketchapp.com -->
    <title>Group 10</title>
    <desc>Created with Sketch.</desc>
    <g id="Dark-Theme" stroke="none" stroke-width="1" fill="none" fill-rule="evenodd">
        <g id="Dark---Wallet" transform="translate(-142.000000, -1158.000000)" fill-rule="nonzero">
            <g id="Group-23" transform="translate(0.000000, 846.000000)">
                <g id="Group-22" transform="translate(120.000000, 0.000000)">
                    <g id="Group-18" transform="translate(0.000000, 57.000000)">
                        <g id="Group-20" transform="translate(0.000000, 56.000000)">
                            <g id="Group-54-Copy-3">
                                <g id="Group-47-Copy-3">
                                    <g id="Group-8-Copy-2" transform="translate(22.000000, 199.000000)">
                                        <g id="Group-3">
                                            <g id="Group-10">
                                                <ellipse id="Oval" fill="#ECB244" cx="22" cy="22.0021075" rx="22" ry="22.0021075"></ellipse>
                                                <path d="M20.7566507,27.2910756 C23.731808,27.2910756 26.5293439,27.2910756 29.4156906,27.2910756 C29.4156906,28.8425063 29.4156906,30.3469239 29.4156906,31.8983545 C27.6838826,31.8983545 25.9520746,31.8983545 24.0870506,31.8983545 C24.1758613,33.21472 24.2202667,34.4370592 24.3090772,35.7534247 C22.799296,35.7534247 21.3783254,35.7534247 19.8241387,35.7534247 C19.8241387,34.5310853 19.8241387,33.261733 19.8241387,31.9453676 C18.00352,31.9453676 16.3161174,31.9453676 14.4954987,31.9453676 C14.4954987,30.4409499 14.3178775,28.9365323 14.5843094,27.5261409 C14.7175255,26.7739321 15.5168215,26.1157494 16.0052801,25.4575667 C17.6926827,23.3419794 19.3800853,21.2734052 21.1118934,19.1578179 C21.7779734,18.3585962 22.4440534,17.6063873 23.198944,16.7131394 C20.3570027,16.7131394 17.6482774,16.7131394 14.8951468,16.7131394 C14.8951468,15.1617086 14.8951468,13.6572911 14.8951468,12.1058604 C16.4937388,12.1058604 18.1367361,12.1058604 19.8241387,12.1058604 C19.8241387,10.789495 19.8241387,9.56715571 19.8241387,8.25079031 C21.2895147,8.25079031 22.66608,8.25079031 24.131456,8.25079031 C24.131456,9.47312961 24.131456,10.6954689 24.131456,12.0118343 C25.9076693,12.0118343 27.6394773,12.0118343 29.5045013,12.0118343 C29.5045013,13.563265 29.6821225,15.0676826 29.4156906,16.4780741 C29.2824745,17.2302828 28.4831785,17.8884656 27.9503146,18.5466483 C26.2629119,20.6622355 24.5755093,22.7308097 22.8437014,24.8463971 C22.1776213,25.6926319 21.5115413,26.4448407 20.7566507,27.2910756 Z" id="Shape" fill="#FFFFFF"></path>
                                            </g>
                                        </g>
                                    </g>
                                </g>
                            </g>
                        </g>
                    </g>
                </g>
            </g>
        </g>
    </g>
</svg>